<?xml version="1.0" encoding="UTF-8" standalone="no"?>
<!-- Created with Inkscape (http://www.inkscape.org/) -->

<svg
   xmlns:dc="http://purl.org/dc/elements/1.1/"
   xmlns:cc="http://creativecommons.org/ns#"
   xmlns:rdf="http://www.w3.org/1999/02/22-rdf-syntax-ns#"
   xmlns:svg="http://www.w3.org/2000/svg"
   xmlns="http://www.w3.org/2000/svg"
   xmlns:sodipodi="http://sodipodi.sourceforge.net/DTD/sodipodi-0.dtd"
   xmlns:inkscape="http://www.inkscape.org/namespaces/inkscape"
   width="1000"
   height="180"
   viewBox="0 0 999.99999 180"
   id="svg4136"
   version="1.1"
   inkscape:version="0.91 r13725"
   sodipodi:docname="display.svg"
   inkscape:export-filename="h:\path4765-4.png"
   inkscape:export-xdpi="89.959999"
   inkscape:export-ydpi="89.959999">
  <defs
     id="defs4138">
    <inkscape:perspective
       id="perspective26"
       inkscape:persp3d-origin="47.0718 : 27.980764 : 1"
       inkscape:vp_z="94.1436 : 41.971146 : 1"
       inkscape:vp_y="0 : 1000 : 0"
       inkscape:vp_x="0 : 41.971146 : 1"
       sodipodi:type="inkscape:persp3d" />
  </defs>
  <sodipodi:namedview
     id="base"
     pagecolor="#ffffff"
     bordercolor="#666666"
     borderopacity="1.0"
     inkscape:pageopacity="0.0"
     inkscape:pageshadow="2"
     inkscape:zoom="2.8"
     inkscape:cx="154.34808"
     inkscape:cy="45.362273"
     inkscape:document-units="px"
     inkscape:current-layer="layer1"
     showgrid="true"
     units="px"
     inkscape:snap-bbox="true"
     inkscape:bbox-paths="false"
     inkscape:bbox-nodes="false"
     inkscape:object-nodes="true"
     inkscape:window-width="1858"
     inkscape:window-height="1181"
     inkscape:window-x="-4"
     inkscape:window-y="-4"
     inkscape:window-maximized="1">
    <inkscape:grid
       type="xygrid"
       id="grid4684" />
  </sodipodi:namedview>
  <metadata
     id="metadata4141">
    <rdf:RDF>
      <cc:Work
         rdf:about="">
        <dc:format>image/svg+xml</dc:format>
        <dc:type
           rdf:resource="http://purl.org/dc/dcmitype/StillImage" />
        <dc:title></dc:title>
      </cc:Work>
    </rdf:RDF>
  </metadata>
  <g
     inkscape:label="Layer 1"
     inkscape:groupmode="layer"
     id="layer1"
     transform="translate(0,-872.36222)">
    <rect
       style="fill:#ffffff;fill-opacity:1;stroke:#000000;stroke-width:0.5;stroke-linecap:round;stroke-linejoin:round;stroke-miterlimit:4;stroke-dasharray:none;stroke-dashoffset:0;stroke-opacity:1"
       id="rect4686"
       width="200"
       height="179.99997"
       x="200"
       y="872.36224" />
    <rect
       style="fill:#ffffff;fill-opacity:1;stroke:#000000;stroke-width:0.5;stroke-linecap:round;stroke-linejoin:round;stroke-miterlimit:4;stroke-dasharray:none;stroke-dashoffset:0;stroke-opacity:1"
       id="rect4686-8"
       width="200"
       height="179.99997"
       x="0"
       y="872.36224" />
    <rect
       style="fill:#ffffff;fill-opacity:1;stroke:#000000;stroke-width:0.5;stroke-linecap:round;stroke-linejoin:round;stroke-miterlimit:4;stroke-dasharray:none;stroke-dashoffset:0;stroke-opacity:1"
       id="rect4686-1"
       width="200"
       height="179.99997"
       x="400"
       y="872.36224" />
    <rect
       style="fill:#ffffff;fill-opacity:1;stroke:#000000;stroke-width:0.5;stroke-linecap:round;stroke-linejoin:round;stroke-miterlimit:4;stroke-dasharray:none;stroke-dashoffset:0;stroke-opacity:1"
       id="rect4686-9"
       width="200"
       height="179.99997"
       x="600"
       y="872.36224" />
    <rect
       style="fill:#ffffff;fill-opacity:1;stroke:#000000;stroke-width:0.5;stroke-linecap:round;stroke-linejoin:round;stroke-miterlimit:4;stroke-dasharray:none;stroke-dashoffset:0;stroke-opacity:1"
       id="rect4686-96"
       width="200"
       height="179.99997"
       x="800"
       y="872.36224" />
    <g
       id="g4729"
       transform="matrix(0.22602112,0,0,0.22602112,814.23559,886.91127)">
      <g
         id="g1875"
         transform="matrix(1.118133,0,0,1.118133,-41.591102,-41.601731)">
        <path
           id="path6"
           style="fill:#ffffff;fill-rule:evenodd;stroke:#000000;stroke-width:2"
           d="m 71.985614,631.52918 c -11.4325,0 -21.99656,-6.09918 -27.71282,-16 -5.71624,-9.90085 -5.71624,-22.09918 0,-32 L 348.84719,55.99085 c 5.71626,-9.90083 16.28032,-16.00001 27.71281,-16.00001 11.43251,0 21.99659,6.09918 27.71283,16.00001 l 304.5744,527.53833 c 5.71624,9.90082 5.71624,22.09915 0,32 -5.71626,9.90081 -16.28032,16 -27.71282,16 l -609.148796,0 z"
           inkscape:connector-curvature="0" />
        <path
           id="path8"
           style="fill:#c1121c;fill-opacity:1;fill-rule:evenodd;stroke:none"
           d="m 71.985614,619.52918 c -7.14532,0 -13.74786,-3.81198 -17.32052,-10 -3.57264,-6.18804 -3.57264,-13.81198 0,-20 L 359.23951,61.99086 c 3.57264,-6.18804 10.1752,-10.00002 17.32049,-10.00002 7.14533,0 13.74787,3.81198 17.32053,10.00002 l 304.5744,527.53832 c 3.57264,6.18802 3.57264,13.81196 0,20 -3.57266,6.18802 -10.1752,10 -17.32052,10 l -609.148796,0 z m 69.282086,-60 235.2923,-407.53833 235.29233,407.53833 -470.58463,0 z"
           inkscape:connector-curvature="0" />
      </g>
      <path
         inkscape:connector-curvature="0"
         style="fill:#000000;fill-rule:evenodd;stroke:none"
         id="path7"
         d="m 360.32772,470.0846 c -0.037,-1.172 -0.394,-2.313 -1.03,-3.296 l -25.693,-39.712 -40.21,-21.285 -60.942,115.098 c -1.978,3.755 -3.021,7.93 -3.021,12.17 0,9.639 5.324,18.466 13.842,22.976 l 64.264,-121.387 27.011,41.759 2.022,54.599 c 0.517,13.973 11.995,25.029 25.978,25.029 0.446,0 0.526,0 0.968,-0.011 l -3.189,-85.94 m -53.667,-96.3 -5.134,9.691 -15.344,-12.685 -6.881,13.01 c -7.452,-3.951 -12.114,-11.682 -12.114,-20.114 0,-3.705 0.906,-7.361 2.645,-10.641 l 18.727,-35.348 c 2.809,-5.324 8.334,-8.653 14.354,-8.653 l 57.349,0 c 14.361,0 25.988,11.645 25.988,26.007 0,0.561 -0.005,1.1 -0.051,1.665 l -6.343,97.532 60.983,50.71 c -2.361,2.796 -5.355,4.972 -8.744,6.364 l -53.094,-43.854 -0.716,11.022 c -11.961,-0.77 -21.273,-10.705 -21.273,-22.7 0,-0.504 0.019,-0.957 0.042,-1.457 l 0.313,-4.742 -14.902,-12.31 5.131,-9.681 10.621,8.767 2.631,-40.745 -24.199,45.711 -40.213,-21.297 36.126,-68.236 -25.734,0 -15.523,29.305 15.355,12.679 z m 99.091,-102.111 c -13.464,0 -24.374,10.91 -24.374,24.371 0,13.467 10.91,24.379 24.374,24.379 13.465,0 24.373,-10.912 24.373,-24.379 0,-13.461 -10.908,-24.371 -24.373,-24.371 z m 25.703,223.349 c 4.621,-1.498 8.733,-4.258 11.869,-7.963 l 25.354,-30.006 c 6.174,-7.298 15.252,-11.507 24.815,-11.507 10.106,0 19.621,4.683 25.776,12.689 l 67.13,87.344 c 0.873,1.139 1.34,2.523 1.34,3.962 0,3.589 -2.902,6.492 -6.49,6.492 l -195,0 c -3.581,0 -6.493,-2.903 -6.493,-6.492 0,-1.547 0.537,-3.022 1.531,-4.194 l 37.284,-44.111 c 1.571,-1.858 3.626,-3.234 5.937,-3.988 l 6.947,-2.226 z" />
    </g>
    <g
       id="g4749"
       transform="matrix(0.42104585,0,0,0.42104585,614.72626,887.35202)">
      <path
         inkscape:connector-curvature="0"
         style="fill:#ffffff;fill-rule:evenodd;stroke:#000000;stroke-width:2;stroke-miterlimit:4;stroke-dasharray:none"
         id="path4"
         d="M 20.111231,355.27999 A 19.165594,19.165594 0 0 1 3.5133386,326.53159 L 185.93051,10.57579 a 19.165594,19.165594 0 0 1 33.19578,0 l 182.41717,315.9558 a 19.165594,19.165594 0 0 1 -16.5979,28.7484 l -364.834329,0 z" />
      <path
         inkscape:connector-curvature="0"
         style="fill:#c1121c;fill-opacity:1;fill-rule:evenodd;stroke:none"
         id="path6-1"
         d="M 20.111231,348.09289 A 11.978497,11.978497 0 0 1 9.7375465,330.12514 L 192.15471,14.169339 a 11.978497,11.978497 0 0 1 20.74736,0 L 395.31925,330.12514 a 11.978497,11.978497 0 0 1 -10.37369,17.96775 l -364.834329,0 z M 61.605986,312.1574 202.5284,68.072575 343.4508,312.1574 l -281.844814,0 z" />
      <path
         inkscape:connector-curvature="0"
         style="fill:#000000;fill-rule:evenodd;stroke:none"
         id="path8-7"
         d="m 228.88108,271.43051 a 26.352693,26.352693 0 0 0 -39.52903,-22.82211 26.352693,26.352693 0 0 0 0,45.6442 26.352693,26.352693 0 0 0 39.52903,-22.82209 z" />
      <path
         inkscape:connector-curvature="0"
         style="fill:#008754;fill-opacity:1;fill-rule:evenodd;stroke:none"
         id="path10"
         d="m 226.48539,271.43051 a 23.956992,23.956992 0 0 0 -35.93549,-20.74735 23.956992,23.956992 0 0 0 0,41.49471 23.956992,23.956992 0 0 0 35.93549,-20.74736 z" />
      <path
         inkscape:connector-curvature="0"
         style="fill:#000000;fill-rule:evenodd;stroke:none"
         id="path12"
         d="m 228.88108,211.53803 a 26.352693,26.352693 0 0 0 -39.52903,-22.82211 26.352693,26.352693 0 0 0 0,45.6442 26.352693,26.352693 0 0 0 39.52903,-22.82209 z" />
      <path
         inkscape:connector-curvature="0"
         style="fill:#f0ca00;fill-opacity:1;fill-rule:evenodd;stroke:none"
         id="path14"
         d="m 226.48539,211.53803 a 23.956992,23.956992 0 0 0 -35.93549,-20.74737 23.956992,23.956992 0 0 0 0,41.49473 23.956992,23.956992 0 0 0 35.93549,-20.74736 z" />
      <path
         inkscape:connector-curvature="0"
         style="fill:#000000;fill-rule:evenodd;stroke:none"
         id="path16"
         d="m 228.88108,151.64555 a 26.352693,26.352693 0 0 0 -39.52903,-22.82211 26.352693,26.352693 0 0 0 0,45.6442 26.352693,26.352693 0 0 0 39.52903,-22.82209 z" />
      <path
         inkscape:connector-curvature="0"
         style="fill:#c1121c;fill-opacity:1;fill-rule:evenodd;stroke:none"
         id="path18"
         d="m 226.48539,151.64555 a 23.956992,23.956992 0 0 0 -35.93549,-20.74737 23.956992,23.956992 0 0 0 0,41.49473 23.956992,23.956992 0 0 0 35.93549,-20.74736 z" />
    </g>
    <path
       style="fill:#c1121c;fill-opacity:1;stroke:none;stroke-width:0.5;stroke-linecap:round;stroke-linejoin:round;stroke-miterlimit:4;stroke-dasharray:none;stroke-dashoffset:0;stroke-opacity:1"
       d="m 500,912.36222 -80,104.99998 160,0 z"
       id="path4761"
       inkscape:connector-curvature="0" />
    <path
       style="fill:#ffffff;fill-opacity:1;stroke:none;stroke-width:0.5;stroke-linecap:round;stroke-linejoin:round;stroke-miterlimit:4;stroke-dasharray:none;stroke-dashoffset:0;stroke-opacity:1"
       d="m 500,932.36222 -60,74.99998 120,0 z"
       id="path4763"
       inkscape:connector-curvature="0"
       sodipodi:nodetypes="cccc" />
    <path
       style="fill:#000000;fill-opacity:1;stroke:none;stroke-width:0.5;stroke-linecap:round;stroke-linejoin:round;stroke-miterlimit:4;stroke-dasharray:none;stroke-dashoffset:0;stroke-opacity:1"
       d="m 300,907.36222 -55,50 25,0 0,59.99998 65,0 0,-59.99998 25,0 z"
       id="path4765"
       inkscape:connector-curvature="0" />
    <path
       style="fill:#000000;fill-opacity:1;stroke:none;stroke-width:0.5;stroke-linecap:round;stroke-linejoin:round;stroke-miterlimit:4;stroke-dasharray:none;stroke-dashoffset:0;stroke-opacity:1"
       d="m 100,907.36222 -55,50 25,0 0,59.99998 65,0 0,-59.99998 25,0 z"
       id="path4765-4"
       inkscape:connector-curvature="0" />
  </g>
</svg>
